<svg width="1628" height="488" viewBox="0 0 1628 488" fill="none" xmlns="http://www.w3.org/2000/svg">
<g clip-path="url(#clip0_1115_750)">
<rect width="1628" height="488" fill="#264887"/>
<path fill-rule="evenodd" clip-rule="evenodd" d="M1316 471H1323.65C1326.99 471 1329.08 467.367 1327.41 464.46L1323.59 457.819L1319.76 451.18C1318.09 448.273 1313.91 448.273 1312.24 451.18L1308.41 457.819L1304.59 464.46C1302.92 467.367 1305.01 471 1308.35 471H1316Z" fill="#2AB8DF" fill-opacity="0.7"/>
<path opacity="0.2" fill-rule="evenodd" clip-rule="evenodd" d="M1212 488V495.645C1212 498.993 1208.37 501.084 1205.46 499.411L1198.82 495.588L1192.18 491.765C1189.27 490.091 1189.27 485.909 1192.18 484.235L1198.82 480.412L1205.46 476.589C1208.37 474.916 1212 477.007 1212 480.354V488Z" fill="white"/>
<path opacity="0.1" fill-rule="evenodd" clip-rule="evenodd" d="M1297 444H1304.65C1307.99 444 1310.08 447.633 1308.41 450.54L1304.59 457.181L1300.76 463.82C1299.09 466.727 1294.91 466.727 1293.24 463.82L1289.41 457.181L1285.59 450.54C1283.92 447.633 1286.01 444 1289.35 444H1297Z" fill="white"/>
<path opacity="0.2" fill-rule="evenodd" clip-rule="evenodd" d="M1316 475H1323.65C1326.99 475 1329.08 478.633 1327.41 481.54L1323.59 488.181L1319.76 494.82C1318.09 497.727 1313.91 497.727 1312.24 494.82L1308.41 488.181L1304.59 481.54C1302.92 478.633 1305.01 475 1308.35 475H1316Z" fill="white"/>
<path opacity="0.2" fill-rule="evenodd" clip-rule="evenodd" d="M1609 17H1616.65C1619.99 17 1622.08 20.6332 1620.41 23.5396L1616.59 30.1805L1612.76 36.8202C1611.09 39.7266 1606.91 39.7266 1605.24 36.8202L1601.41 30.1805L1597.59 23.5396C1595.92 20.6332 1598.01 17 1601.35 17H1609Z" fill="white"/>
<path opacity="0.3" fill-rule="evenodd" clip-rule="evenodd" d="M140 110V102.355C140 99.0071 143.633 96.9157 146.54 98.5888L153.181 102.412L159.82 106.235C162.727 107.909 162.727 112.091 159.82 113.765L153.181 117.588L146.54 121.411C143.633 123.084 140 120.993 140 117.645V110Z" fill="white"/>
<path fill-rule="evenodd" clip-rule="evenodd" d="M78 148V140.355C78 137.007 81.6332 134.916 84.5396 136.589L91.1805 140.412L97.8202 144.235C100.727 145.909 100.727 150.091 97.8202 151.765L91.1805 155.588L84.5396 159.411C81.6332 161.084 78 158.993 78 155.645V148Z" fill="#74D1EA"/>
<path fill-rule="evenodd" clip-rule="evenodd" d="M200 33V25.3545C200 22.0071 203.633 19.9157 206.54 21.5888L213.181 25.4116L219.82 29.2355C222.727 30.9086 222.727 35.0914 219.82 36.7645L213.181 40.5884L206.54 44.4112C203.633 46.0843 200 43.9929 200 40.6455V33Z" fill="#DD2222" fill-opacity="0.7"/>
<path opacity="0.3" fill-rule="evenodd" clip-rule="evenodd" d="M363 52V44.3545C363 41.0071 366.633 38.9157 369.54 40.5888L376.181 44.4116L382.82 48.2355C385.727 49.9086 385.727 54.0914 382.82 55.7645L376.181 59.5884L369.54 63.4112C366.633 65.0843 363 62.9929 363 59.6455V52Z" fill="white"/>
<path opacity="0.1" fill-rule="evenodd" clip-rule="evenodd" d="M299 91V83.3545C299 80.0071 302.633 77.9157 305.54 79.5888L312.181 83.4116L318.82 87.2355C321.727 88.9086 321.727 93.0914 318.82 94.7645L312.181 98.5884L305.54 102.411C302.633 104.084 299 101.993 299 98.6455V91Z" fill="white"/>
<path opacity="0.1" fill-rule="evenodd" clip-rule="evenodd" d="M47 129V121.355C47 118.007 50.6332 115.916 53.5396 117.589L60.1805 121.412L66.8202 125.235C69.7266 126.909 69.7266 131.091 66.8202 132.765L60.1805 136.588L53.5396 140.411C50.6332 142.084 47 139.993 47 136.645V129Z" fill="white"/>
<path opacity="0.1" fill-rule="evenodd" clip-rule="evenodd" d="M136 71V63.3545C136 60.0071 132.367 57.9157 129.46 59.5888L122.819 63.4116L116.18 67.2355C113.273 68.9086 113.273 73.0914 116.18 74.7645L122.819 78.5884L129.46 82.4112C132.367 84.0843 136 81.9929 136 78.6455V71Z" fill="white"/>
<path opacity="0.1" fill-rule="evenodd" clip-rule="evenodd" d="M43 244V236.355C43 233.007 39.3668 230.916 36.4604 232.589L29.8195 236.412L23.1798 240.235C20.2734 241.909 20.2734 246.091 23.1798 247.765L29.8195 251.588L36.4604 255.411C39.3668 257.084 43 254.993 43 251.645V244Z" fill="white"/>
<path fill-rule="evenodd" clip-rule="evenodd" d="M105 52V44.3545C105 41.0071 101.367 38.9157 98.4604 40.5888L91.8195 44.4116L85.1798 48.2355C82.2734 49.9086 82.2734 54.0914 85.1798 55.7645L91.8195 59.5884L98.4604 63.4112C101.367 65.0843 105 62.9929 105 59.6455V52Z" fill="#2AB8DF" fill-opacity="0.7"/>
<path opacity="0.1" fill-rule="evenodd" clip-rule="evenodd" d="M43 167V159.355C43 156.007 39.3668 153.916 36.4604 155.589L29.8195 159.412L23.1798 163.235C20.2734 164.909 20.2734 169.091 23.1798 170.765L29.8195 174.588L36.4604 178.411C39.3668 180.084 43 177.993 43 174.645V167Z" fill="white"/>
<path opacity="0.3" fill-rule="evenodd" clip-rule="evenodd" d="M227 52V44.3545C227 41.0071 223.367 38.9157 220.46 40.5888L213.819 44.4116L207.18 48.2355C204.273 49.9086 204.273 54.0914 207.18 55.7645L213.819 59.5884L220.46 63.4112C223.367 65.0843 227 62.9929 227 59.6455V52Z" fill="white"/>
<path opacity="0.1" fill-rule="evenodd" clip-rule="evenodd" d="M198 110V102.355C198 99.0071 194.367 96.9157 191.46 98.5888L184.819 102.412L178.18 106.235C175.273 107.909 175.273 112.091 178.18 113.765L184.819 117.588L191.46 121.411C194.367 123.084 198 120.993 198 117.645V110Z" fill="white"/>
<path fill-rule="evenodd" clip-rule="evenodd" d="M263 110V102.355C263 99.0071 259.367 96.9157 256.46 98.5888L249.819 102.412L243.18 106.236C240.273 107.909 240.273 112.091 243.18 113.765L249.819 117.588L256.46 121.411C259.367 123.084 263 120.993 263 117.645V110Z" fill="#74D1EA"/>
<path opacity="0.2" fill-rule="evenodd" clip-rule="evenodd" d="M136 33V25.3545C136 22.0071 132.367 19.9157 129.46 21.5888L122.819 25.4116L116.18 29.2355C113.273 30.9086 113.273 35.0914 116.18 36.7645L122.819 40.5884L129.46 44.4112C132.367 46.0843 136 43.9929 136 40.6455V33Z" fill="white"/>
<path opacity="0.2" fill-rule="evenodd" clip-rule="evenodd" d="M196 33V25.3545C196 22.0071 192.367 19.9157 189.46 21.5888L182.819 25.4116L176.18 29.2355C173.273 30.9086 173.273 35.0914 176.18 36.7645L182.819 40.5884L189.46 44.4112C192.367 46.0843 196 43.9929 196 40.6455V33Z" fill="white"/>
<path opacity="0.2" fill-rule="evenodd" clip-rule="evenodd" d="M263 33V25.3545C263 22.0071 259.367 19.9157 256.46 21.5888L249.819 25.4116L243.18 29.2355C240.273 30.9086 240.273 35.0914 243.18 36.7645L249.819 40.5884L256.46 44.4112C259.367 46.0843 263 43.9929 263 40.6455V33Z" fill="white"/>
<path opacity="0.7" fill-rule="evenodd" clip-rule="evenodd" d="M231 90V82.3545C231 79.0071 227.367 76.9157 224.46 78.5888L217.819 82.4116L211.18 86.2355C208.273 87.9086 208.273 92.0914 211.18 93.7645L217.819 97.5884L224.46 101.411C227.367 103.084 231 100.993 231 97.6455V90Z" fill="white"/>
<path opacity="0.7" fill-rule="evenodd" clip-rule="evenodd" d="M1416 413H1423.65C1426.99 413 1429.08 416.633 1427.41 419.54L1423.59 426.181L1419.76 432.82C1418.09 435.727 1413.91 435.727 1412.24 432.82L1408.41 426.181L1404.59 419.54C1402.92 416.633 1405.01 413 1408.35 413H1416Z" fill="white"/>
<path opacity="0.7" fill-rule="evenodd" clip-rule="evenodd" d="M1262 106H1269.65C1272.99 106 1275.08 102.367 1273.41 99.4604L1269.59 92.8195L1265.76 86.1797C1264.09 83.2734 1259.91 83.2734 1258.24 86.1797L1254.41 92.8195L1250.59 99.4604C1248.92 102.367 1251.01 106 1254.35 106H1262Z" fill="white"/>
<path fill-rule="evenodd" clip-rule="evenodd" d="M1587 444H1594.65C1597.99 444 1600.08 447.633 1598.41 450.54L1594.59 457.181L1590.76 463.82C1589.09 466.727 1584.91 466.727 1583.24 463.82L1579.41 457.181L1575.59 450.54C1573.92 447.633 1576.01 444 1579.35 444H1587Z" fill="#74D1EA"/>
<path fill-rule="evenodd" clip-rule="evenodd" d="M1433 75H1440.65C1443.99 75 1446.08 71.3668 1444.41 68.4604L1440.59 61.8195L1436.76 55.1797C1435.09 52.2734 1430.91 52.2734 1429.24 55.1797L1425.41 61.8195L1421.59 68.4604C1419.92 71.3668 1422.01 75 1425.35 75H1433Z" fill="#74D1EA"/>
<path opacity="0.1" fill-rule="evenodd" clip-rule="evenodd" d="M1571 79H1578.65C1581.99 79 1584.08 82.6332 1582.41 85.5396L1578.59 92.1805L1574.76 98.8202C1573.09 101.727 1568.91 101.727 1567.24 98.8202L1563.41 92.1805L1559.59 85.5396C1557.92 82.6332 1560.01 79 1563.35 79H1571Z" fill="white"/>
<path opacity="0.1" fill-rule="evenodd" clip-rule="evenodd" d="M1105 410H1112.65C1115.99 410 1118.08 406.367 1116.41 403.46L1112.59 396.819L1108.76 390.18C1107.09 387.273 1102.91 387.273 1101.24 390.18L1097.41 396.819L1093.59 403.46C1091.92 406.367 1094.01 410 1097.35 410H1105Z" fill="white"/>
<path opacity="0.1" fill-rule="evenodd" clip-rule="evenodd" d="M1435 382H1442.65C1445.99 382 1448.08 385.633 1446.41 388.54L1442.59 395.181L1438.76 401.82C1437.09 404.727 1432.91 404.727 1431.24 401.82L1427.41 395.181L1423.59 388.54C1421.92 385.633 1424.01 382 1427.35 382H1435Z" fill="white"/>
<path opacity="0.1" fill-rule="evenodd" clip-rule="evenodd" d="M1281 137H1288.65C1291.99 137 1294.08 133.367 1292.41 130.46L1288.59 123.819L1284.76 117.18C1283.09 114.273 1278.91 114.273 1277.24 117.18L1273.41 123.819L1269.59 130.46C1267.92 133.367 1270.01 137 1273.35 137H1281Z" fill="white"/>
<path opacity="0.1" fill-rule="evenodd" clip-rule="evenodd" d="M1435 444H1442.65C1445.99 444 1448.08 447.633 1446.41 450.54L1442.59 457.181L1438.76 463.82C1437.09 466.727 1432.91 466.727 1431.24 463.82L1427.41 457.181L1423.59 450.54C1421.92 447.633 1424.01 444 1427.35 444H1435Z" fill="white"/>
<path opacity="0.1" fill-rule="evenodd" clip-rule="evenodd" d="M1281 75H1288.65C1291.99 75 1294.08 71.3668 1292.41 68.4604L1288.59 61.8195L1284.76 55.1797C1283.09 52.2734 1278.91 52.2734 1277.24 55.1797L1273.41 61.8195L1269.59 68.4604C1267.92 71.3668 1270.01 75 1273.35 75H1281Z" fill="white"/>
<path opacity="0.2" fill-rule="evenodd" clip-rule="evenodd" d="M1549 444H1556.65C1559.99 444 1562.08 447.633 1560.41 450.54L1556.59 457.181L1552.76 463.82C1551.09 466.727 1546.91 466.727 1545.24 463.82L1541.41 457.181L1537.59 450.54C1535.92 447.633 1538.01 444 1541.35 444H1549Z" fill="white"/>
<path opacity="0.2" fill-rule="evenodd" clip-rule="evenodd" d="M1395 75H1402.65C1405.99 75 1408.08 71.3668 1406.41 68.4604L1402.59 61.8195L1398.76 55.1797C1397.09 52.2734 1392.91 52.2734 1391.24 55.1797L1387.41 61.8195L1383.59 68.4604C1381.92 71.3668 1384.01 75 1387.35 75H1395Z" fill="white"/>
<path fill-rule="evenodd" clip-rule="evenodd" d="M45 363H52.6455C55.9929 363 58.0843 366.633 56.4112 369.54L52.5884 376.181L48.7645 382.82C47.0914 385.727 42.9086 385.727 41.2355 382.82L37.4116 376.181L33.5888 369.54C31.9157 366.633 34.0071 363 37.3545 363H45Z" fill="#74D1EA"/>
<path opacity="0.7" fill-rule="evenodd" clip-rule="evenodd" d="M273 425H280.645C283.993 425 286.084 428.633 284.411 431.54L280.588 438.181L276.764 444.82C275.091 447.727 270.909 447.727 269.236 444.82L265.412 438.181L261.589 431.54C259.916 428.633 262.007 425 265.355 425H273Z" fill="white"/>
<path opacity="0.1" fill-rule="evenodd" clip-rule="evenodd" d="M45 425H52.6455C55.9929 425 58.0843 428.633 56.4112 431.54L52.5884 438.181L48.7645 444.82C47.0914 447.727 42.9086 447.727 41.2355 444.82L37.4116 438.181L33.5888 431.54C31.9157 428.633 34.0071 425 37.3545 425H45Z" fill="white"/>
<path fill-rule="evenodd" clip-rule="evenodd" d="M1514 48H1521.65C1524.99 48 1527.08 51.6332 1525.41 54.5396L1521.59 61.1805L1517.76 67.8202C1516.09 70.7266 1511.91 70.7266 1510.24 67.8202L1506.41 61.1805L1502.59 54.5396C1500.92 51.6332 1503.01 48 1506.35 48H1514Z" fill="#DD2222" fill-opacity="0.7"/>
<path fill-rule="evenodd" clip-rule="evenodd" d="M1514 -14H1521.65C1524.99 -14 1527.08 -10.3668 1525.41 -7.46039L1521.59 -0.819481L1517.76 5.82023C1516.09 8.72659 1511.91 8.72659 1510.24 5.82023L1506.41 -0.819481L1502.59 -7.46039C1500.92 -10.3668 1503.01 -14 1506.35 -14H1514Z" fill="#2AB8DF" fill-opacity="0.7"/>
<path fill-rule="evenodd" clip-rule="evenodd" d="M1048 503H1055.65C1058.99 503 1061.08 499.367 1059.41 496.46L1055.59 489.819L1051.76 483.18C1050.09 480.273 1045.91 480.273 1044.24 483.18L1040.41 489.819L1036.59 496.46C1034.92 499.367 1037.01 503 1040.35 503H1048Z" fill="#2AB8DF" fill-opacity="0.7"/>
<path opacity="0.1" fill-rule="evenodd" clip-rule="evenodd" d="M1533 17H1540.65C1543.99 17 1546.08 20.6332 1544.41 23.5396L1540.59 30.1805L1536.76 36.8202C1535.09 39.7266 1530.91 39.7266 1529.24 36.8202L1525.41 30.1805L1521.59 23.5396C1519.92 20.6332 1522.01 17 1525.35 17H1533Z" fill="white"/>
<path opacity="0.1" fill-rule="evenodd" clip-rule="evenodd" d="M1067 472H1074.65C1077.99 472 1080.08 468.367 1078.41 465.46L1074.59 458.819L1070.76 452.18C1069.09 449.273 1064.91 449.273 1063.24 452.18L1059.41 458.819L1055.59 465.46C1053.92 468.367 1056.01 472 1059.35 472H1067Z" fill="white"/>
<path opacity="0.1" fill-rule="evenodd" clip-rule="evenodd" d="M1300 168H1307.65C1310.99 168 1313.08 164.367 1311.41 161.46L1307.59 154.819L1303.76 148.18C1302.09 145.273 1297.91 145.273 1296.24 148.18L1292.41 154.819L1288.59 161.46C1286.92 164.367 1289.01 168 1292.35 168H1300Z" fill="white"/>
<path opacity="0.3" fill-rule="evenodd" clip-rule="evenodd" d="M1511 382H1518.65C1521.99 382 1524.08 385.633 1522.41 388.54L1518.59 395.181L1514.76 401.82C1513.09 404.727 1508.91 404.727 1507.24 401.82L1503.41 395.181L1499.59 388.54C1497.92 385.633 1500.01 382 1503.35 382H1511Z" fill="white"/>
<path opacity="0.3" fill-rule="evenodd" clip-rule="evenodd" d="M1357 137H1364.65C1367.99 137 1370.08 133.367 1368.41 130.46L1364.59 123.819L1360.76 117.18C1359.09 114.273 1354.91 114.273 1353.24 117.18L1349.41 123.819L1345.59 130.46C1343.92 133.367 1346.01 137 1349.35 137H1357Z" fill="white"/>
<path fill-rule="evenodd" clip-rule="evenodd" d="M1357 476H1364.65C1367.99 476 1370.08 479.633 1368.41 482.54L1364.59 489.181L1360.76 495.82C1359.09 498.727 1354.91 498.727 1353.24 495.82L1349.41 489.181L1345.59 482.54C1343.92 479.633 1346.01 476 1349.35 476H1357Z" fill="#DD2222" fill-opacity="0.7"/>
<path fill-rule="evenodd" clip-rule="evenodd" d="M1243 13H1250.65C1253.99 13 1256.08 9.36675 1254.41 6.46039L1250.59 -0.180542L1246.76 -6.82025C1245.09 -9.72661 1240.91 -9.72661 1239.24 -6.82025L1235.41 -0.180542L1231.59 6.46039C1229.92 9.36675 1232.01 13 1235.35 13H1243Z" fill="#DD2222" fill-opacity="0.7"/>
<path opacity="0.2" fill-rule="evenodd" clip-rule="evenodd" d="M1568 475H1575.65C1578.99 475 1581.08 478.633 1579.41 481.54L1575.59 488.181L1571.76 494.82C1570.09 497.727 1565.91 497.727 1564.24 494.82L1560.41 488.181L1556.59 481.54C1554.92 478.633 1557.01 475 1560.35 475H1568Z" fill="white"/>
<path opacity="0.2" fill-rule="evenodd" clip-rule="evenodd" d="M1414 44H1421.65C1424.99 44 1427.08 40.3668 1425.41 37.4604L1421.59 30.8195L1417.76 24.1797C1416.09 21.2734 1411.91 21.2734 1410.24 24.1797L1406.41 30.8195L1402.59 37.4604C1400.92 40.3668 1403.01 44 1406.35 44H1414Z" fill="white"/>
<path opacity="0.1" fill-rule="evenodd" clip-rule="evenodd" d="M292 456H299.645C302.993 456 305.084 459.633 303.411 462.54L299.588 469.181L295.764 475.82C294.091 478.727 289.909 478.727 288.236 475.82L284.412 469.181L280.589 462.54C278.916 459.633 281.007 456 284.355 456H292Z" fill="white"/>
<path opacity="0.2" fill-rule="evenodd" clip-rule="evenodd" d="M178 394H185.645C188.993 394 191.084 397.633 189.411 400.54L185.588 407.181L181.765 413.82C180.091 416.727 175.909 416.727 174.235 413.82L170.412 407.181L166.589 400.54C164.916 397.633 167.007 394 170.355 394H178ZM121 425H128.645C131.993 425 134.084 428.633 132.411 431.54L128.588 438.181L124.765 444.82C123.091 447.727 118.909 447.727 117.235 444.82L113.412 438.181L109.589 431.54C107.916 428.633 110.007 425 113.355 425H121Z" fill="white"/>
<path opacity="0.1" fill-rule="evenodd" clip-rule="evenodd" d="M1414 234H1421.65C1424.99 234 1427.08 237.633 1425.41 240.54L1421.59 247.181L1417.76 253.82C1416.09 256.727 1411.91 256.727 1410.24 253.82L1406.41 247.181L1402.59 240.54C1400.92 237.633 1403.01 234 1406.35 234H1414Z" fill="white"/>
<path opacity="0.1" fill-rule="evenodd" clip-rule="evenodd" d="M1568 471H1575.65C1578.99 471 1581.08 467.367 1579.41 464.46L1575.59 457.819L1571.76 451.18C1570.09 448.273 1565.91 448.273 1564.24 451.18L1560.41 457.819L1556.59 464.46C1554.92 467.367 1557.01 471 1560.35 471H1568Z" fill="white"/>
<path opacity="0.1" fill-rule="evenodd" clip-rule="evenodd" d="M1414 48H1421.65C1424.99 48 1427.08 51.6332 1425.41 54.5396L1421.59 61.1805L1417.76 67.8203C1416.09 70.7266 1411.91 70.7266 1410.24 67.8203L1406.41 61.1805L1402.59 54.5396C1400.92 51.6332 1403.01 48 1406.35 48H1414Z" fill="white"/>
<path opacity="0.1" fill-rule="evenodd" clip-rule="evenodd" d="M235 421H242.645C245.993 421 248.084 417.367 246.411 414.46L242.588 407.819L238.764 401.18C237.091 398.273 232.909 398.273 231.236 401.18L227.412 407.819L223.589 414.46C221.916 417.367 224.007 421 227.355 421H235Z" fill="white"/>
<path fill-rule="evenodd" clip-rule="evenodd" d="M178 390H185.645C188.993 390 191.084 386.367 189.411 383.46L185.588 376.819L181.765 370.18C180.091 367.273 175.909 367.273 174.235 370.18L170.412 376.819L166.589 383.46C164.916 386.367 167.007 390 170.355 390H178Z" fill="#2AB8DF" fill-opacity="0.7"/>
<path opacity="0.5" fill-rule="evenodd" clip-rule="evenodd" d="M1528 503H1535.65C1538.99 503 1541.08 499.367 1539.41 496.46L1535.59 489.819L1531.76 483.18C1530.09 480.273 1525.91 480.273 1524.24 483.18L1520.41 489.819L1516.59 496.46C1514.92 499.367 1517.01 503 1520.35 503H1528Z" fill="white"/>
<path opacity="0.5" fill-rule="evenodd" clip-rule="evenodd" d="M1414 -14H1421.65C1424.99 -14 1427.08 -10.3668 1425.41 -7.46039L1421.59 -0.819458L1417.76 5.82025C1416.09 8.72661 1411.91 8.72661 1410.24 5.82025L1406.41 -0.819458L1402.59 -7.46039C1400.92 -10.3668 1403.01 -14 1406.35 -14H1414Z" fill="white"/>
<path opacity="0.7" fill-rule="evenodd" clip-rule="evenodd" d="M1476 44H1483.65C1486.99 44 1489.08 40.3668 1487.41 37.4604L1483.59 30.8195L1479.76 24.1798C1478.09 21.2734 1473.91 21.2734 1472.24 24.1798L1468.41 30.8195L1464.59 37.4604C1462.92 40.3668 1465.01 44 1468.35 44H1476Z" fill="white"/>
<path opacity="0.7" fill-rule="evenodd" clip-rule="evenodd" d="M1010 445H1017.65C1020.99 445 1023.08 448.633 1021.41 451.54L1017.59 458.181L1013.76 464.82C1012.09 467.727 1007.91 467.727 1006.24 464.82L1002.41 458.181L998.589 451.54C996.916 448.633 999.007 445 1002.35 445H1010Z" fill="white"/>
<path opacity="0.7" fill-rule="evenodd" clip-rule="evenodd" d="M1604 137H1611.65C1614.99 137 1617.08 133.367 1615.41 130.46L1611.59 123.819L1607.76 117.18C1606.09 114.273 1601.91 114.273 1600.24 117.18L1596.41 123.819L1592.59 130.46C1590.92 133.367 1593.01 137 1596.35 137H1604Z" fill="white"/>
<path opacity="0.7" fill-rule="evenodd" clip-rule="evenodd" d="M1238 413H1245.65C1248.99 413 1251.08 416.633 1249.41 419.54L1245.59 426.181L1241.76 432.82C1240.09 435.727 1235.91 435.727 1234.24 432.82L1230.41 426.181L1226.59 419.54C1224.92 416.633 1227.01 413 1230.35 413H1238Z" fill="white"/>
<path opacity="0.1" fill-rule="evenodd" clip-rule="evenodd" d="M1604 199H1611.65C1614.99 199 1617.08 195.367 1615.41 192.46L1611.59 185.819L1607.76 179.18C1606.09 176.273 1601.91 176.273 1600.24 179.18L1596.41 185.819L1592.59 192.46C1590.92 195.367 1593.01 199 1596.35 199H1604Z" fill="white"/>
<path fill-rule="evenodd" clip-rule="evenodd" d="M1319 141H1326.65C1329.99 141 1332.08 144.633 1330.41 147.54L1326.59 154.181L1322.76 160.82C1321.09 163.727 1316.91 163.727 1315.24 160.82L1311.41 154.181L1307.59 147.54C1305.92 144.633 1308.01 141 1311.35 141H1319Z" fill="#DD2222" fill-opacity="0.7"/>
<path opacity="0.2" fill-rule="evenodd" clip-rule="evenodd" d="M1416 409H1423.65C1426.99 409 1429.08 405.367 1427.41 402.46L1423.59 395.819L1419.76 389.18C1418.09 386.273 1413.91 386.273 1412.24 389.18L1408.41 395.819L1404.59 402.46C1402.92 405.367 1405.01 409 1408.35 409H1416Z" fill="white"/>
<path opacity="0.2" fill-rule="evenodd" clip-rule="evenodd" d="M1262 110H1269.65C1272.99 110 1275.08 113.633 1273.41 116.54L1269.59 123.181L1265.76 129.82C1264.09 132.727 1259.91 132.727 1258.24 129.82L1254.41 123.181L1250.59 116.54C1248.92 113.633 1251.01 110 1254.35 110H1262Z" fill="white"/>
<path opacity="0.1" d="M1370.41 433.46C1372.08 436.367 1369.99 440 1366.65 440H1351.35C1348.01 440 1345.92 436.367 1347.59 433.46L1355.24 420.18C1356.91 417.273 1361.09 417.273 1362.76 420.18L1370.41 433.46Z" fill="white"/>
<path opacity="0.1" d="M1216.41 85.5396C1218.08 82.6332 1215.99 79 1212.65 79H1197.35C1194.01 79 1191.92 82.6332 1193.59 85.5396L1201.24 98.8202C1202.91 101.727 1207.09 101.727 1208.76 98.8202L1216.41 85.5396Z" fill="white"/>
<path opacity="0.1" fill-rule="evenodd" clip-rule="evenodd" d="M1376 503H1383.65C1386.99 503 1389.08 499.367 1387.41 496.46L1383.59 489.819L1379.76 483.18C1378.09 480.273 1373.91 480.273 1372.24 483.18L1368.41 489.819L1364.59 496.46C1362.92 499.367 1365.01 503 1368.35 503H1376Z" fill="white"/>
<path opacity="0.1" fill-rule="evenodd" clip-rule="evenodd" d="M1262 -14H1269.65C1272.99 -14 1275.08 -10.3668 1273.41 -7.46039L1269.59 -0.819458L1265.76 5.82025C1264.09 8.72661 1259.91 8.72661 1258.24 5.82025L1254.41 -0.819458L1250.59 -7.46039C1248.92 -10.3668 1251.01 -14 1254.35 -14H1262Z" fill="white"/>
<path opacity="0.1" fill-rule="evenodd" clip-rule="evenodd" d="M254 390H261.645C264.993 390 267.084 386.367 265.411 383.46L261.588 376.819L257.764 370.18C256.091 367.273 251.909 367.273 250.236 370.18L246.412 376.819L242.589 383.46C240.916 386.367 243.007 390 246.355 390H254Z" fill="white"/>
<path fill-rule="evenodd" clip-rule="evenodd" d="M197 359H204.645C207.993 359 210.084 355.367 208.411 352.46L204.588 345.819L200.764 339.18C199.091 336.273 194.909 336.273 193.235 339.18L189.412 345.819L185.589 352.46C183.916 355.367 186.007 359 189.355 359H197Z" fill="#DD2222" fill-opacity="0.7"/>
<path opacity="0.3" fill-rule="evenodd" clip-rule="evenodd" d="M26 390H33.6455C36.9929 390 39.0843 386.367 37.4112 383.46L33.5884 376.819L29.7645 370.18C28.0914 367.273 23.9086 367.273 22.2355 370.18L18.4116 376.819L14.5888 383.46C12.9157 386.367 15.0071 390 18.3545 390H26Z" fill="white"/>
<path opacity="0.1" fill-rule="evenodd" clip-rule="evenodd" d="M1490 503H1497.65C1500.99 503 1503.08 499.367 1501.41 496.46L1497.59 489.819L1493.76 483.18C1492.09 480.273 1487.91 480.273 1486.24 483.18L1482.41 489.819L1478.59 496.46C1476.92 499.367 1479.01 503 1482.35 503H1490Z" fill="white"/>
<path opacity="0.1" fill-rule="evenodd" clip-rule="evenodd" d="M1376 -14H1383.65C1386.99 -14 1389.08 -10.3668 1387.41 -7.46039L1383.59 -0.819458L1379.76 5.82025C1378.09 8.72661 1373.91 8.72661 1372.24 5.82025L1368.41 -0.819458L1364.59 -7.46039C1362.92 -10.3668 1365.01 -14 1368.35 -14H1376Z" fill="white"/>
<path opacity="0.1" fill-rule="evenodd" clip-rule="evenodd" d="M254 452H261.645C264.993 452 267.084 448.367 265.411 445.46L261.588 438.819L257.764 432.18C256.091 429.273 251.909 429.273 250.236 432.18L246.412 438.819L242.589 445.46C240.916 448.367 243.007 452 246.355 452H254Z" fill="white"/>
<path opacity="0.3" fill-rule="evenodd" clip-rule="evenodd" d="M197 421H204.645C207.993 421 210.084 417.367 208.411 414.46L204.588 407.819L200.764 401.18C199.091 398.273 194.909 398.273 193.235 401.18L189.412 407.819L185.589 414.46C183.916 417.367 186.007 421 189.355 421H197Z" fill="white"/>
<path fill-rule="evenodd" clip-rule="evenodd" d="M140 452H147.645C150.993 452 153.084 448.367 151.411 445.46L147.588 438.819L143.765 432.18C142.091 429.273 137.909 429.273 136.235 432.18L132.412 438.819L128.589 445.46C126.916 448.367 129.007 452 132.355 452H140Z" fill="#DD2222" fill-opacity="0.7"/>
<path opacity="0.2" fill-rule="evenodd" clip-rule="evenodd" d="M83 483H90.6455C93.9929 483 96.0843 479.367 94.4112 476.46L90.5884 469.819L86.7645 463.18C85.0914 460.273 80.9086 460.273 79.2355 463.18L75.4116 469.819L71.5888 476.46C69.9157 479.367 72.0071 483 75.3545 483H83Z" fill="white"/>
<path opacity="0.3" fill-rule="evenodd" clip-rule="evenodd" d="M26 452H33.6455C36.9929 452 39.0843 448.367 37.4112 445.46L33.5884 438.819L29.7645 432.18C28.0914 429.273 23.9086 429.273 22.2355 432.18L18.4116 438.819L14.5888 445.46C12.9157 448.367 15.0071 452 18.3545 452H26Z" fill="white"/>
<path opacity="0.1" fill-rule="evenodd" clip-rule="evenodd" d="M48 418H55.6455C58.9929 418 61.0843 414.367 59.4112 411.46L55.5884 404.819L51.7645 398.18C50.0914 395.273 45.9086 395.273 44.2355 398.18L40.4116 404.819L36.5888 411.46C34.9157 414.367 37.0071 418 40.3545 418H48Z" fill="white"/>
<path fill-rule="evenodd" clip-rule="evenodd" d="M1435 440H1442.65C1445.99 440 1448.08 436.367 1446.41 433.46L1442.59 426.819L1438.76 420.18C1437.09 417.273 1432.91 417.273 1431.24 420.18L1427.41 426.819L1423.59 433.46C1421.92 436.367 1424.01 440 1427.35 440H1435Z" fill="#2AB8DF" fill-opacity="0.7"/>
<path fill-rule="evenodd" clip-rule="evenodd" d="M1281 79H1288.65C1291.99 79 1294.08 82.6332 1292.41 85.5396L1288.59 92.1805L1284.76 98.8203C1283.09 101.727 1278.91 101.727 1277.24 98.8203L1273.41 92.1805L1269.59 85.5396C1267.92 82.6332 1270.01 79 1273.35 79H1281Z" fill="#2AB8DF" fill-opacity="0.7"/>
<path opacity="0.1" fill-rule="evenodd" clip-rule="evenodd" d="M102 328H109.645C112.993 328 115.084 324.367 113.411 321.46L109.588 314.819L105.765 308.18C104.091 305.273 99.9086 305.273 98.2355 308.18L94.4116 314.819L90.5888 321.46C88.9157 324.367 91.0071 328 94.3545 328H102Z" fill="white"/>
<path opacity="0.2" fill-rule="evenodd" clip-rule="evenodd" d="M1378 471H1385.65C1388.99 471 1391.08 467.367 1389.41 464.46L1385.59 457.819L1381.76 451.18C1380.09 448.273 1375.91 448.273 1374.24 451.18L1370.41 457.819L1366.59 464.46C1364.92 467.367 1367.01 471 1370.35 471H1378Z" fill="white"/>
<path opacity="0.2" fill-rule="evenodd" clip-rule="evenodd" d="M1224 48H1231.65C1234.99 48 1237.08 51.6332 1235.41 54.5396L1231.59 61.1805L1227.76 67.8203C1226.09 70.7266 1221.91 70.7266 1220.24 67.8203L1216.41 61.1805L1212.59 54.5396C1210.92 51.6332 1213.01 48 1216.35 48H1224Z" fill="white"/>
<path d="M753.987 306.19C753.29 305.753 752.47 305.558 751.653 305.636H731.946C729.757 305.636 727.66 305.113 725.932 303.808C725.126 302.991 724.511 302.003 724.132 300.916C723.753 299.829 723.739 298.692 723.739 297.525V244.416C723.739 243.349 723.598 242.715 723.177 242.417C722.573 241.989 721.778 242.017 721.041 242.017H712.609C711.847 242.017 711.218 242.017 710.642 242.474C710.367 242.692 710.218 243.036 710.111 243.373C710.028 243.633 710 244.024 710 244.416V297.525C710 300.568 710.315 302.674 710.923 305.179C711.491 307.554 712.565 309.776 714.071 311.691C715.694 313.69 717.778 315.26 720.141 316.262C723.212 317.501 726.377 317.975 729.81 317.975H749.977C751.313 317.975 752.574 317.96 753.696 317.692C754.478 317.506 754.89 317.321 755.425 316.88C755.685 316.665 755.79 316.432 755.879 316.096C755.946 315.845 755.918 315.598 755.918 315.327C755.918 315.327 755.169 309.431 754.796 308.199C754.423 306.968 754.551 306.67 753.987 306.19ZM846.659 290.013C844.915 288.672 843.003 287.568 840.974 286.729C838.836 285.83 836.649 284.984 834.413 284.19C832.456 283.531 830.794 282.901 829.429 282.3C828.274 281.812 827.164 281.222 826.114 280.536C825.36 280.055 824.725 279.408 824.257 278.643C823.843 277.881 823.63 277.024 823.64 276.155C823.647 275.462 823.804 274.78 824.099 274.154C824.394 273.529 824.821 272.975 825.35 272.533C826.946 271.291 828.938 270.682 830.95 270.821C833.166 270.77 835.383 270.906 837.577 271.225C840.016 271.634 842.416 272.254 844.75 273.077C845.161 273.257 845.613 273.321 846.057 273.262C846.368 273.188 846.623 272.871 846.822 272.312L849.116 266.337C849.244 265.861 849.253 265.36 849.143 264.879C849.06 264.645 848.926 264.431 848.752 264.254C848.578 264.077 848.367 263.941 848.135 263.856C845.395 262.791 842.551 262.021 839.651 261.558C836.752 261.091 833.818 260.882 830.883 260.932C828.017 260.934 825.169 261.388 822.442 262.277C820.217 263.002 818.152 264.152 816.359 265.664C814.775 267.027 813.527 268.742 812.712 270.674C811.891 272.674 811.498 274.828 811.561 276.992C811.557 278.89 811.962 280.765 812.75 282.489C813.54 284.116 814.647 285.565 816.005 286.751C817.608 288.135 819.401 289.278 821.328 290.146C823.776 291.274 826.282 292.273 828.834 293.137C831.782 294.092 834.632 295.332 837.343 296.84C838.206 297.291 838.931 297.97 839.441 298.805C839.952 299.639 840.228 300.598 840.24 301.578C840.269 302.438 840.092 303.292 839.725 304.069C839.357 304.845 838.809 305.521 838.128 306.039C836.207 307.356 833.911 308 831.591 307.872C828.854 307.877 826.124 307.594 823.445 307.027C820.561 306.479 817.747 305.603 815.059 304.415C814.811 304.264 814.535 304.165 814.247 304.125C813.959 304.086 813.667 304.106 813.387 304.185C812.938 304.482 812.583 304.904 812.366 305.399L809.965 311.271C809.823 311.477 809.729 311.713 809.691 311.962C809.653 312.211 809.672 312.465 809.747 312.705C809.821 312.945 809.949 313.164 810.121 313.347C810.293 313.529 810.504 313.669 810.738 313.757C812.282 314.594 813.903 315.28 815.577 315.805C817.363 316.374 819.186 316.811 821.034 317.115C822.921 317.428 824.806 317.655 826.69 317.796C828.574 317.935 830.293 317.975 831.966 317.975C834.678 317.975 837.506 317.556 840.158 316.83C842.494 316.206 844.692 315.143 846.636 313.697C848.449 312.324 849.906 310.531 850.884 308.47C851.932 306.181 852.426 303.675 852.326 301.157C852.353 298.875 851.794 296.625 850.702 294.627C849.662 292.841 848.289 291.274 846.659 290.013ZM783.804 259.924C780.527 259.94 777.254 260.17 774.006 260.612C770.727 261.023 767.508 261.824 764.416 262.996C763.512 263.35 763.199 264.092 763.478 265.221L764.937 271.259C765.076 271.895 765.319 272.283 765.667 272.424C766.221 272.559 766.802 272.522 767.334 272.318C769.551 271.646 771.817 271.15 774.11 270.835C776.662 270.43 779.241 270.217 781.824 270.2C783.655 270.147 785.483 270.379 787.244 270.888C788.483 271.256 789.612 271.93 790.528 272.848C791.315 273.677 791.872 274.7 792.143 275.814C792.43 277.029 792.57 278.274 792.56 279.522V281.323H780.886C777.294 281.232 773.715 281.77 770.306 282.912C767.7 283.804 765.304 285.228 763.269 287.095C761.503 288.762 760.163 290.834 759.361 293.135C758.561 295.432 758.155 297.85 758.162 300.285C758.148 302.603 758.5 304.909 759.204 307.117C759.911 309.291 761.19 311.232 762.905 312.731C765.008 314.5 767.46 315.8 770.098 316.545C773.811 317.59 777.657 318.072 781.511 317.976C783.179 317.976 784.933 317.922 786.775 317.816C788.616 317.71 790.475 317.516 792.352 317.234C794.198 316.958 796.026 316.569 797.825 316.068C799.521 315.603 801.176 315.001 802.776 314.268C803.421 313.958 803.956 313.458 804.31 312.832C804.664 312.207 804.82 311.488 804.756 310.771V278.992C804.935 276.402 804.579 273.803 803.708 271.36C802.838 268.916 801.474 266.681 799.701 264.797C796.33 261.55 791.031 259.925 783.804 259.924ZM792.456 306.323C791.493 306.694 790.498 306.977 789.485 307.17C788.408 307.382 787.383 307.559 786.41 307.7C785.495 307.837 784.573 307.925 783.648 307.964C782.779 308.001 782.101 308.018 781.615 308.018C778.828 308.148 776.058 307.526 773.589 306.217C772.554 305.54 771.724 304.589 771.19 303.467C770.657 302.346 770.441 301.098 770.566 299.861C770.47 298.118 770.887 296.386 771.765 294.882C772.523 293.719 773.564 292.771 774.788 292.128C775.989 291.497 777.298 291.102 778.645 290.962C779.909 290.827 781.178 290.756 782.449 290.751H792.456V306.323ZM892.066 314.398L890.919 307.619C890.902 307.244 890.755 306.888 890.503 306.612C890.294 306.436 889.842 306.419 889.147 306.559C888.66 306.631 888.052 306.719 887.322 306.824C886.593 306.93 885.863 307.018 885.134 307.089C884.404 307.16 883.692 307.212 882.997 307.248C882.301 307.284 881.746 307.301 881.329 307.301C879.635 307.432 877.943 307.089 876.535 306.03C875.858 305.521 875.518 304.757 875.247 303.951C874.976 303.144 874.971 302.32 874.971 301.369V272.888H885.446C886.21 272.888 886.678 272.747 886.853 272.464C887.058 272.036 887.148 271.562 887.114 271.087V265.316C887.13 264.894 887.04 264.476 886.853 264.098C886.679 263.78 886.21 263.621 885.446 263.621H874.971V250.168C875.009 249.888 874.983 249.604 874.892 249.337C874.802 249.07 874.65 248.828 874.45 248.631C874.249 248.505 874.024 248.426 873.79 248.399C873.555 248.371 873.318 248.397 873.094 248.473L865.63 250.586C865.046 250.771 864.499 251.058 864.013 251.434C863.687 251.63 863.377 251.942 863.208 252.285C863.04 252.628 862.929 252.908 862.929 253.368V263.621H857.934C857.11 263.621 856.807 263.817 856.598 264.098C856.472 264.269 855.96 265.456 855.846 265.642C855.846 265.642 853.946 270.732 853.811 271.248C853.746 271.448 853.74 271.662 853.795 271.865C853.849 272.067 853.961 272.25 854.117 272.389C854.291 272.571 854.505 272.71 854.74 272.797C854.976 272.883 855.229 272.914 855.478 272.888H862.879L862.929 302.958C862.929 307.089 863.548 310.977 866.423 314.292C868.664 316.876 872.815 318.001 878.515 318C879.834 318 881.676 317.929 884.039 317.788C886.451 317.636 888.833 317.173 891.128 316.411C891.753 316.129 892.082 315.829 892.118 315.51C892.149 315.139 892.131 314.765 892.066 314.398Z" fill="white"/>
<path d="M1223.54 256.938C1223.1 256.938 1222.66 257.024 1222.26 257.193C1221.85 257.362 1221.48 257.611 1221.17 257.924C1220.86 258.237 1220.62 258.608 1220.45 259.018C1220.28 259.427 1220.2 259.865 1220.2 260.307V314.614C1220.2 315.057 1220.28 315.495 1220.45 315.905C1220.62 316.314 1220.86 316.686 1221.17 316.999C1221.48 317.312 1221.85 317.561 1222.26 317.731C1222.66 317.9 1223.1 317.988 1223.54 317.988C1223.98 317.988 1224.41 317.9 1224.82 317.731C1225.22 317.561 1225.59 317.312 1225.9 316.999C1226.21 316.686 1226.46 316.314 1226.62 315.905C1226.79 315.495 1226.88 315.057 1226.87 314.614V260.307C1226.87 259.414 1226.52 258.558 1225.9 257.926C1225.27 257.294 1224.42 256.939 1223.54 256.938ZM1152.36 276.379C1150.1 276.361 1147.88 277.021 1145.99 278.277C1144.09 279.533 1142.61 281.328 1141.73 283.433C1140.85 285.539 1140.61 287.86 1141.05 290.103C1141.48 292.346 1142.56 294.409 1144.15 296.031C1145.75 297.652 1147.79 298.76 1150.01 299.212C1152.23 299.664 1154.53 299.441 1156.63 298.571C1158.72 297.701 1160.52 296.223 1161.78 294.325C1163.04 292.427 1163.71 290.194 1163.71 287.909C1163.72 284.863 1162.53 281.937 1160.41 279.775C1158.28 277.612 1155.38 276.391 1152.36 276.379ZM1190.41 276.379C1188.14 276.361 1185.92 277.021 1184.03 278.277C1182.14 279.533 1180.66 281.328 1179.78 283.433C1178.9 285.539 1178.66 287.86 1179.09 290.103C1179.52 292.346 1180.6 294.409 1182.2 296.031C1183.79 297.652 1185.83 298.76 1188.05 299.212C1190.27 299.664 1192.58 299.441 1194.67 298.571C1196.77 297.701 1198.56 296.223 1199.82 294.325C1201.08 292.427 1201.75 290.194 1201.75 287.909C1201.76 284.863 1200.58 281.937 1198.45 279.775C1196.32 277.612 1193.43 276.391 1190.41 276.379ZM1114.32 276.379C1112.06 276.361 1109.84 277.021 1107.94 278.277C1106.05 279.533 1104.57 281.328 1103.69 283.433C1102.81 285.539 1102.57 287.86 1103 290.103C1103.43 292.346 1104.52 294.409 1106.11 296.031C1107.71 297.652 1109.74 298.76 1111.97 299.212C1114.19 299.664 1116.49 299.441 1118.59 298.571C1120.68 297.701 1122.47 296.223 1123.73 294.325C1124.99 292.427 1125.67 290.194 1125.67 287.909C1125.68 284.863 1124.49 281.937 1122.36 279.775C1120.23 277.612 1117.34 276.391 1114.32 276.379Z" fill="white"/>
<path d="M944.943 282.032C946.725 279.614 947.998 276.854 948.684 273.922C949.253 271.558 949.567 269.139 949.62 266.707C949.655 263.393 949.038 259.314 947.804 256.242C946.655 253.356 944.915 250.748 942.696 248.589C940.478 246.43 937.831 244.768 934.931 243.713C931.707 242.526 928.502 242 924.864 242H903.917C903.246 242 902.117 242 901.389 242.19C900.616 242.391 900.125 242.532 899.491 243.384C899.061 243.961 898.819 244.497 898.684 245.206C898.462 246.37 898.465 247.354 898.435 248.355L898.435 315.651C898.435 315.848 898.473 316.489 898.571 316.837C898.67 317.185 898.796 317.371 899.16 317.609C899.692 317.957 900.277 318 900.966 318H907.861C908.826 318 909.992 318 910.574 317.609C911.028 317.304 911.07 316.684 911.07 315.651L911.07 291.427H923.763C928.384 291.427 932.928 290.683 937.077 288.686C940.168 287.102 942.859 284.825 944.943 282.032ZM933.854 276.439C932.5 277.695 930.899 278.653 929.156 279.25C927.413 279.847 925.847 279.906 923.732 279.906H910.372V254.284H923.513C925.811 254.204 928.099 254.623 930.223 255.514C931.814 256.207 933.226 257.259 934.349 258.59C935.322 259.788 936.034 261.179 936.44 262.673C936.822 264.019 937.026 266.201 937.045 267.602C937.165 270.854 936.02 274.025 933.854 276.439ZM968.168 259.937C964.043 260.091 959.958 260.814 956.028 262.087C955.124 262.441 954.811 263.182 955.09 264.312L956.549 270.348C956.688 270.984 956.931 271.372 957.279 271.513C957.833 271.648 958.414 271.611 958.947 271.407C961.296 270.684 963.731 270.281 966.187 270.21C968.018 270.157 969.847 270.389 971.609 270.899C972.848 271.266 973.977 271.94 974.893 272.858C975.682 273.685 976.239 274.709 976.509 275.823C976.797 277.037 976.937 278.282 976.926 279.53V281.331H965.248C961.656 281.24 958.076 281.777 954.666 282.919C952.059 283.811 949.663 285.235 947.628 287.103C945.862 288.769 944.521 290.84 943.718 293.14C942.918 295.437 942.512 297.854 942.519 300.288C942.506 302.607 942.858 304.912 943.561 307.12C944.27 309.293 945.549 311.233 947.263 312.733C949.367 314.501 951.819 315.8 954.457 316.546C958.171 317.59 962.018 317.975 965.874 317.975C967.607 317.975 969.297 317.923 971.139 317.817C972.982 317.711 974.841 317.516 976.718 317.234C978.564 316.958 980.392 316.569 982.192 316.069C983.887 315.603 985.543 315.001 987.144 314.269C987.789 313.96 988.325 313.459 988.679 312.835C989.033 312.21 989.189 311.49 989.125 310.773V279.001C989.304 276.411 988.947 273.812 988.077 271.369C987.206 268.925 985.841 266.692 984.068 264.809C980.697 261.561 975.397 259.937 968.168 259.937ZM976.822 306.325C975.858 306.696 974.864 306.979 973.85 307.173C972.773 307.385 971.748 307.561 970.774 307.702C969.859 307.838 968.937 307.926 968.012 307.967C967.143 308.002 966.465 308.02 965.978 308.02C963.191 308.15 960.42 307.528 957.95 306.219C956.915 305.543 956.085 304.592 955.552 303.471C955.018 302.35 954.802 301.102 954.926 299.865C954.831 298.123 955.248 296.391 956.125 294.887C956.884 293.724 957.925 292.776 959.149 292.133C960.35 291.503 961.659 291.107 963.007 290.968C964.271 290.832 965.541 290.762 966.812 290.757H976.822V306.325ZM1031.04 290.006C1029.3 288.664 1027.39 287.559 1025.36 286.719C1023.22 285.82 1021.03 284.973 1018.79 284.179C1016.84 283.519 1015.17 282.889 1013.81 282.287C1012.65 281.799 1011.54 281.209 1010.49 280.523C1009.74 280.041 1009.1 279.393 1008.63 278.627C1008.22 277.865 1008.01 277.007 1008.02 276.138C1008.02 275.445 1008.18 274.762 1008.48 274.136C1008.77 273.51 1009.2 272.956 1009.73 272.513C1011.32 271.271 1013.32 270.661 1015.33 270.8C1017.55 270.75 1019.76 270.885 1021.96 271.204C1024.4 271.614 1026.8 272.234 1029.13 273.058C1029.54 273.238 1030 273.302 1030.44 273.243C1030.75 273.169 1031.01 272.852 1031.21 272.292L1033.5 266.313C1033.63 265.836 1033.64 265.335 1033.53 264.854C1033.44 264.619 1033.31 264.406 1033.14 264.229C1032.96 264.052 1032.75 263.915 1032.52 263.83C1029.78 262.765 1026.93 261.994 1024.03 261.531C1021.13 261.063 1018.2 260.854 1015.26 260.904C1012.4 260.907 1009.55 261.361 1006.82 262.25C1004.59 262.976 1002.53 264.127 1000.73 265.64C999.149 267.003 997.901 268.72 997.086 270.653C996.264 272.655 995.872 274.81 995.935 276.976C995.93 278.875 996.336 280.752 997.125 282.476C997.915 284.104 999.021 285.555 1000.38 286.742C1001.98 288.126 1003.78 289.27 1005.7 290.139C1008.15 291.268 1010.66 292.267 1013.21 293.132C1016.16 294.088 1019.01 295.328 1021.72 296.837C1022.59 297.289 1023.31 297.969 1023.82 298.804C1024.33 299.639 1024.61 300.598 1024.62 301.578C1024.65 302.439 1024.47 303.294 1024.11 304.071C1023.74 304.848 1023.19 305.524 1022.51 306.043C1020.59 307.361 1018.29 308.006 1015.97 307.877C1013.23 307.882 1010.5 307.599 1007.82 307.032C1004.94 306.484 1002.13 305.62 999.434 304.418C999.168 304.299 998.909 304.168 998.621 304.128C998.333 304.088 998.041 304.109 997.761 304.187C997.312 304.485 996.985 304.804 996.739 305.403L994.348 311.198C994.198 311.513 994.157 311.753 994.12 312.002C994.082 312.25 994.045 312.473 994.12 312.713C994.194 312.954 994.274 313.105 994.446 313.288C994.618 313.47 994.887 313.655 995.111 313.766C996.716 314.562 998.277 315.29 999.952 315.816C1001.74 316.385 1003.56 316.823 1005.41 317.127C1007.3 317.44 1009.18 317.667 1011.07 317.808C1012.95 317.948 1014.73 317.975 1016.4 317.975C1019.15 317.975 1021.89 317.568 1024.54 316.842C1026.88 316.217 1029.08 315.153 1031.02 313.707C1032.83 312.333 1034.29 310.538 1035.27 308.475C1036.32 306.185 1036.81 303.677 1036.71 301.157C1036.74 298.874 1036.18 296.622 1035.09 294.623C1034.05 292.835 1032.67 291.267 1031.04 290.006ZM1077.84 290.006C1076.1 288.664 1074.18 287.559 1072.15 286.719C1070.01 285.82 1067.83 284.973 1065.59 284.179C1063.63 283.519 1061.97 282.889 1060.6 282.287C1059.45 281.799 1058.34 281.209 1057.29 280.523C1056.53 280.041 1055.9 279.393 1055.43 278.627C1055.02 277.865 1054.8 277.007 1054.81 276.138C1054.82 275.445 1054.98 274.762 1055.27 274.136C1055.57 273.51 1055.99 272.956 1056.52 272.513C1058.12 271.271 1060.11 270.661 1062.13 270.8C1064.34 270.75 1066.56 270.885 1068.76 271.204C1071.19 271.614 1073.6 272.234 1075.93 273.058C1076.34 273.238 1076.79 273.302 1077.24 273.243C1077.55 273.169 1077.75 272.845 1078 272.292L1080.3 266.313C1080.43 265.837 1080.44 265.335 1080.32 264.854C1080.24 264.619 1080.11 264.405 1079.93 264.228C1079.76 264.051 1079.55 263.915 1079.32 263.83C1076.58 262.765 1073.73 261.994 1070.83 261.531C1067.93 261.063 1065 260.854 1062.06 260.904C1059.19 260.907 1056.34 261.361 1053.62 262.25C1051.39 262.976 1049.32 264.126 1047.53 265.64C1045.95 267.003 1044.7 268.72 1043.88 270.653C1043.06 272.655 1042.67 274.81 1042.73 276.976C1042.73 278.875 1043.13 280.752 1043.92 282.476C1044.71 284.104 1045.82 285.555 1047.18 286.742C1048.78 288.126 1050.57 289.27 1052.5 290.139C1054.95 291.268 1057.46 292.267 1060.01 293.132C1062.96 294.087 1065.81 295.328 1068.52 296.837C1069.38 297.289 1070.11 297.969 1070.62 298.804C1071.13 299.639 1071.41 300.598 1071.42 301.578C1071.45 302.439 1071.27 303.294 1070.9 304.071C1070.54 304.848 1069.99 305.524 1069.31 306.043C1067.38 307.361 1065.09 308.006 1062.77 307.877C1060.03 307.882 1057.3 307.599 1054.62 307.032C1051.73 306.483 1048.93 305.583 1046.23 304.418C1045.96 304.303 1045.71 304.168 1045.42 304.128C1045.13 304.088 1044.84 304.109 1044.56 304.187C1044.11 304.485 1043.78 304.816 1043.54 305.403L1041.1 311.21C1040.96 311.538 1040.9 311.722 1040.86 311.97C1040.82 312.219 1040.84 312.473 1040.92 312.713C1040.99 312.954 1041.1 313.105 1041.27 313.288C1041.44 313.47 1041.58 313.591 1041.91 313.766C1043.47 314.612 1045.07 315.29 1046.75 315.816C1048.53 316.385 1050.36 316.823 1052.21 317.127C1054.09 317.44 1055.98 317.667 1057.87 317.808C1059.75 317.948 1061.53 317.975 1063.2 317.975C1066.01 317.975 1068.68 317.568 1071.34 316.842C1073.67 316.217 1075.87 315.153 1077.82 313.707C1079.63 312.332 1081.09 310.538 1082.07 308.475C1083.11 306.185 1083.61 303.677 1083.51 301.157C1083.54 298.874 1082.98 296.622 1081.88 294.623C1080.84 292.835 1079.47 291.267 1077.84 290.006Z" fill="white"/>
<path d="M1245.39 250.445C1245.47 250.591 1245.88 251.34 1246.63 252.69C1246.63 252.69 1246.99 253.304 1247.04 253.381C1247.09 253.459 1247.07 253.492 1246.99 253.492C1246.94 253.492 1246.91 253.492 1246.9 253.492C1246.9 253.492 1246.81 253.492 1246.63 253.492H1246.36H1246.1C1246.1 253.492 1246.1 253.492 1245.83 253.492C1245.83 253.492 1245.79 253.492 1245.72 253.492C1245.64 253.492 1245.62 253.462 1245.59 253.417C1245.5 253.269 1245.3 252.957 1245.3 252.957L1244.23 251.087C1244.15 250.909 1244.06 250.73 1243.97 250.552C1243.92 250.466 1243.9 250.395 1243.86 250.355C1243.79 250.293 1243.71 250.285 1243.68 250.285C1243.62 250.285 1243.44 250.285 1243.44 250.285H1243.17H1242.9H1242.64C1242.64 250.285 1242.64 250.285 1242.37 250.285V250.552V252.957V253.225C1242.37 253.225 1242.37 253.277 1242.37 253.374C1242.37 253.471 1242.33 253.492 1242.23 253.492C1241.97 253.492 1241.84 253.492 1241.84 253.492H1241.57C1241.57 253.492 1241.51 253.492 1241.42 253.492C1241.33 253.492 1241.3 253.478 1241.3 253.374C1241.3 253.338 1241.3 253.284 1241.3 253.225C1241.3 253.225 1241.3 253.225 1241.3 252.957V252.69V252.423V246.009V245.742C1241.3 245.742 1241.3 245.474 1241.57 245.474H1243.44C1243.97 245.474 1244.38 245.474 1244.65 245.474C1245.42 245.474 1245.81 245.882 1246.12 246.28C1246.36 246.61 1246.55 247.016 1246.55 247.81C1246.55 248.604 1246.43 249.081 1246.05 249.483C1245.84 249.698 1245.64 249.845 1245.45 250.014C1245.44 250.029 1245.3 250.103 1245.3 250.208C1245.3 250.312 1245.38 250.43 1245.39 250.445ZM1243.17 249.216C1243.44 249.216 1243.7 249.216 1243.7 249.216C1243.97 249.216 1244.23 249.216 1244.23 249.216C1244.37 249.216 1245.42 249.216 1245.42 247.81C1245.42 246.404 1244.23 246.543 1244.23 246.543C1243.97 246.543 1243.7 246.543 1243.44 246.543C1242.96 246.543 1242.7 246.543 1242.64 246.543C1242.49 246.543 1242.37 246.609 1242.37 246.811C1242.37 246.811 1242.37 246.811 1242.37 247.078C1242.37 247.078 1242.37 247.078 1242.37 247.345V247.612V247.88V248.681C1242.37 248.897 1242.37 248.85 1242.37 248.997C1242.37 249.093 1242.42 249.216 1242.61 249.216C1242.63 249.216 1243 249.216 1243.17 249.216Z" fill="white"/>
<path d="M1243.57 257.501C1239.31 257.501 1235.85 254.026 1235.85 249.75C1235.85 245.474 1239.31 242 1243.57 242C1247.83 242 1251.3 245.474 1251.3 249.75C1251.56 254.026 1248.1 257.501 1243.57 257.501ZM1243.57 243.336C1239.84 243.336 1237.18 246.276 1237.18 250.018C1237.18 253.759 1240.11 256.432 1243.84 256.432C1247.57 256.432 1250.23 253.492 1250.23 250.018C1250.23 246.009 1247.3 243.336 1243.57 243.336Z" fill="white"/>
<path d="M398.496 274.336V233.456C398.496 232.84 397.992 232.392 397.376 232.392H390.04C389.424 232.392 388.92 232.84 388.92 233.456V274.336C388.92 275.736 388.752 276.352 387.464 276.352H384.664C384.272 276.352 384.048 276.744 384.048 277.136V282.848C384.048 283.352 384.384 283.744 384.888 283.8C386.4 283.968 387.184 284.024 388.472 284.024C394.128 284.024 398.496 281.952 398.496 274.336ZM439.631 256.528V249.864C439.631 236.872 432.295 231.888 423.055 231.888C413.815 231.888 406.479 236.872 406.479 249.864V256.528C406.479 269.52 413.815 274.504 423.055 274.504C432.295 274.504 439.631 269.52 439.631 256.528ZM429.999 256.528C429.999 263.248 427.759 266.104 423.055 266.104C418.351 266.104 416.167 263.248 416.167 256.528V249.864C416.167 243.144 418.351 240.288 423.055 240.288C427.759 240.288 429.999 243.144 429.999 249.864V256.528ZM457.228 272.88V233.456C457.228 232.84 456.78 232.392 456.164 232.392H448.66C448.044 232.392 447.652 232.84 447.652 233.456V272.88C447.652 273.496 448.044 274 448.66 274H456.164C456.78 274 457.228 273.496 457.228 272.88ZM499.147 271.872V233.456C499.147 232.84 498.643 232.392 498.027 232.392H491.419C490.803 232.392 490.299 232.84 490.299 233.456V257.144C490.299 257.536 490.131 257.648 490.019 257.648C489.851 257.648 489.795 257.536 489.571 257.2L476.299 234.128C475.627 232.952 475.067 232.392 473.947 232.392H468.291C467.115 232.392 466.163 233.344 466.163 234.52V272.88C466.163 273.496 466.667 274 467.283 274H473.891C474.507 274 475.011 273.496 475.011 272.88V250.2C475.011 249.864 475.123 249.752 475.291 249.752C475.459 249.752 475.571 249.864 475.795 250.2L488.563 272.264C489.459 273.776 490.299 274 491.475 274H496.963C498.139 274 499.147 273.048 499.147 271.872ZM555.891 258.376V233.456C555.891 232.84 555.331 232.392 554.715 232.392H547.435C546.819 232.392 546.315 232.84 546.315 233.456V258.376C546.315 264.088 544.747 266.496 539.707 266.496C534.667 266.496 533.155 264.088 533.155 258.376V233.456C533.155 232.84 532.651 232.392 532.035 232.392H524.699C524.083 232.392 523.579 232.84 523.579 233.456V258.376C523.579 271.144 530.803 274.504 539.707 274.504C548.611 274.504 555.891 271.144 555.891 258.376ZM591.335 262.24C591.335 257.704 589.599 254.008 583.775 250.872L576.607 247.008C573.583 245.384 572.855 244.656 572.855 243.088C572.855 241.072 574.031 240.12 577.223 240.12C581.031 240.12 587.527 240.624 589.095 240.736C589.151 240.736 589.207 240.736 589.207 240.736C589.935 240.736 590.159 240.288 590.159 239.784V234.128C590.159 233.512 589.767 233.232 589.319 233.12C587.191 232.56 581.535 231.888 577.447 231.888C566.583 231.888 563.111 236.648 563.111 242.808C563.111 246.896 564.511 250.424 569.719 253.504L577.447 258.096C580.359 259.832 581.143 260.728 581.143 262.352C581.143 265.04 580.023 266.272 576.159 266.272C573.975 266.272 567.815 265.824 565.519 265.6C565.463 265.6 565.407 265.6 565.351 265.6C564.791 265.6 564.343 265.88 564.343 266.664V272.152C564.343 272.768 564.903 273.104 565.463 273.272C568.319 274 571.623 274.504 576.047 274.504C587.415 274.504 591.335 268.176 591.335 262.24ZM646.868 273.104C646.868 273.048 646.812 272.936 646.812 272.824L638.468 238.104C637.18 232.728 633.092 231.888 629.228 231.888C625.364 231.888 621.22 232.728 619.932 238.104L611.588 272.824C611.588 272.936 611.532 273.048 611.532 273.104C611.532 273.664 611.924 274 612.484 274H620.324C620.884 274 621.332 273.552 621.444 272.992L623.46 263.808H634.94L636.956 272.992C637.068 273.552 637.516 274 638.076 274H645.916C646.476 274 646.868 273.664 646.868 273.104ZM633.372 256.136H625.028L628.444 240.68C628.556 240.12 628.724 239.84 629.228 239.84C629.732 239.84 629.844 240.12 629.956 240.68L633.372 256.136ZM676.583 239.224V233.456C676.583 232.84 676.023 232.392 675.407 232.392H647.631C647.015 232.392 646.511 232.84 646.511 233.456V239.224C646.511 239.84 647.015 240.288 647.631 240.288H656.759V272.88C656.759 273.496 657.263 274 657.879 274H665.215C665.831 274 666.335 273.496 666.335 272.88V240.288H675.407C676.023 240.288 676.583 239.84 676.583 239.224Z" fill="white"/>
</g>
<defs>
<clipPath id="clip0_1115_750">
<rect width="1628" height="488" fill="white"/>
</clipPath>
</defs>
</svg>
